<svg width="14" height="15" viewBox="0 0 14 15" fill="none" xmlns="http://www.w3.org/2000/svg">
<path fill-rule="evenodd" clip-rule="evenodd" d="M6.51289 6.03828C6.24012 6.03828 5.96284 6.28101 5.96284 6.65149V12.3359C5.96284 12.7064 6.24012 12.9491 6.51289 12.9491H11.9131C12.1859 12.9491 12.4632 12.7064 12.4632 12.3359V6.65149C12.4632 6.28101 12.1859 6.03828 11.9131 6.03828H6.51289ZM4.66284 6.65149C4.66284 5.62667 5.46012 4.73828 6.51289 4.73828H11.9131C12.9659 4.73828 13.7632 5.62667 13.7632 6.65149V12.3359C13.7632 13.3608 12.9659 14.2491 11.9131 14.2491H6.51289C5.46012 14.2491 4.66284 13.3608 4.66284 12.3359V6.65149Z" fill="white"/>
<path fill-rule="evenodd" clip-rule="evenodd" d="M2.31343 1.61738C2.17862 1.61738 2.04214 1.67345 1.93611 1.78506C1.82901 1.8978 1.76338 2.05751 1.76338 2.23059V7.91504C1.76338 8.08812 1.82901 8.24783 1.93611 8.36057C2.04214 8.47218 2.17862 8.52824 2.31343 8.52824H2.91345C3.27244 8.52824 3.56345 8.81926 3.56345 9.17825C3.56345 9.53723 3.27244 9.82825 2.91345 9.82825H2.31343C1.81169 9.82825 1.33769 9.61813 0.993616 9.25595C0.650614 8.89489 0.463379 8.412 0.463379 7.91504V2.23059C0.463379 1.73363 0.650614 1.25074 0.993616 0.889681C1.33769 0.527495 1.81169 0.317383 2.31343 0.317383H7.71365C8.21539 0.317383 8.68939 0.527495 9.03346 0.889681C9.37646 1.25073 9.5637 1.73363 9.5637 2.23059V2.8622C9.5637 3.22118 9.27269 3.5122 8.9137 3.5122C8.55471 3.5122 8.2637 3.22118 8.2637 2.8622V2.23059C8.2637 2.05751 8.19807 1.8978 8.09096 1.78506C7.98494 1.67345 7.84846 1.61738 7.71365 1.61738H2.31343Z" fill="white"/>
</svg>
